<svg xmlns="http://www.w3.org/2000/svg" xml:space="preserve" viewBox="0 0 768 1024">
  <g fill="none" stroke="#000" stroke-dashoffset="1000" stroke-linecap="round" stroke-miterlimit="10">
    <path stroke-width="7" d="M454.5 491.5c-3.2.6-7.6.8-11.5-1.5-5.8-3.4-6.5-9.8-8.5-14-7.8-15.8-45.9-19.4-73-6.5-5.2 2.5-23.3 11.1-23 23 .1 4.7 3 9 6.5 11.5 5.8 4.1 12.1.6 21-.5 21.6-2.8 27.4 11.1 49 7.5 4-.7 16.6-2.8 18-9 2-8.7-17.9-25.1-35.5-22.5-.9.1-12.6 2-14 8.5-1.4 6.4 7.3 16.2 15.5 14.5 5.9-1.2 10.6-8 9.5-13-1.7-7.4-17.1-12.9-30-10.5-23.3 4.3-30.5 32.8-44 30-7.7-1.6-11.1-11.9-11.5-13-5.5-16.9 10.7-40.3 29.5-50.5 24.1-13 61.2-9 85.5 8 13.2 9.2 24.1 23.2 40 21 6.1-.8 10.4-3.7 13-5.5 22.9-15.7 24.8-50.9 25.5-64 1.1-19.8 2.8-51.2-17.5-70-12.8-11.8-28.7-13.5-37-14.5-120.1-13.9-184.7-48.4-210.5-16.5-16.9 20.9-26.5 42.5-26.5 42.5-5 11.3-8.8 23-14.5 23-4.8 0-8.4-8.5-9.5-11-9-21.2 2.1-53.9 17.5-77 41.7-62.5 126.2-70.7 139.5-72 56-5.5 99.2 12 118 21 27 12.9 46.5 32.4 85.5 71.5 4.1 4.1 11.4 11.6 15 23.5 2.5 8.3 2.2 15.2 2 19.5-3.1 57.4-8.3 60.8-6.5 84 .5 6.7 1.6 15.2-1.5 26-.7 2.3-3.5 11.7-11.5 21.5-8.6 10.5-21.2 19.2-23 17.5-1.8-1.8 5.9-17.1 19.5-22 2.5-.9 8.8-3.2 15-.5 8 3.4 10.7 13 12 18 3.3 12.3 1.1 21.7-11.5 63-6.7 21.9-9.4 30.1-18 37.5-3.5 3-11.7 10.1-22 8.5-7.2-1.1-15.1-6.5-16.5-13.5-1.4-7.1 5.1-9.4 8.5-20 5-15.4-5.3-21.6-1-38 .7-2.5 4.9-18.7 16.5-21 10.5-2.1 22.7 8 24 18 .7 5.1-1.9 7-12 24-10.5 17.7-11 21.4-15 22-8.5 1.3-21.3-13.1-20.5-27.5.6-11.2 9.5-22.6 15.5-21.5 6.1 1.1 11 15.5 7.5 26.5-3.8 11.8-15.4 13.6-31.5 25-15.2 10.7-10.9 13.4-35.5 39-24.7 25.7-37.1 38.6-53.5 39.5-2.7.1-12.2.3-25.5 2-9.4 1.2-14.1 1.8-16.5 3.5-9 6.3-5 17.7-13 33.5-1.3 2.5-6.3 11.8-14.5 18-26.6 19.9-78.6.1-81.5-1-8.5-3.3-18.5-8.4-32-6.5-4.9.7-15.4 2.1-19.5 9-8.3 14 11.6 47.4 39.5 61 6.6 3.2 19 7.9 47.5 6 57.7-3.9 99.9-29.4 111-36.5 40-25.5 62.5-56.1 70-67 38.5-55.9 38.4-113.9 39-183 .5-64.6.8-96.9-16.5-123-50.6-76.3-176.7-60.8-195-58.5-14.6 1.8-106.1 13.1-122 63-4.3 13.4-5.7 37.7 6 46 6.5 4.6 11.8.4 26 1.5 22.1 1.7 44.4 14.4 55 32.5 7 11.9 10.8 29.3 4.5 34.5-3.1 2.5-7 .9-15-.5-26.2-4.5-32.8 4.8-54.5-1-4.4-1.2-20.9-5.6-21-12-.2-7.1 19.6-16.2 37.5-13.5 6.1.9 14.6 1.3 18.5 7.5 5.7 9.1-.9 25.3-7.5 26-6.5.7-15.9-13.5-12.5-21 3.4-7.5 19.5-7.6 30-3 10.9 4.8 19 15.8 20 27.5 1.2 14.4-8.7 25.4-16.5 34-15 16.6-32.1 22.6-30.5 27 .7 1.8 4.1 2.2 7.5 2.5 10.7 1.1 14.1-4.9 21-3 5.9 1.6 10 7.8 11.5 12.5 1.8 5.9-.9 8.5 1.5 12 3.2 4.7 12.3 6.3 18 3 6.2-3.6 3.7-10.1 9.5-14.5 7.7-5.8 23-2.5 31 6.5 1.4 1.6 6 6.7 4.5 9-3.6 5.7-35-17.3-49.5-6.5-5.1 3.8-6.6 13.2-9.5 32-1.2 7.6-1.1 11 1 13.5 3.7 4.4 11 2.6 20.5 2 26.7-1.7 46.7 7.9 60.5 14.5 6.2 3 9.7 4.7 9.5 6.5-.7 5.3-34 8.8-65.5 3.5-45.5-7.7-75.9-31.7-81-25-.6.8-1.5 2.8 3 11 3 5.5 22.7 39.6 57.5 42.5 24.4 2 60-10.9 64.5-12.5 2.2-.8 7.4-2.7 14-2 11 1.2 20.4 9.2 25 17 10.1 17.2.1 38.6-2 43-14.9 31.9-61.7 52.9-101 46-58.5-10.3-85.9-79.6-102-120.5-27.5-69.6-17.7-128.5-15.5-140.5 5.8-31.7 16.8-56.4 25.5-72.5"/>
    <path stroke-width="2" d="M468.1 480.1c-3.2.6-7.6.8-11.5-1.5-5.8-3.4-6.5-9.8-8.5-14-7.8-15.8-45.9-19.4-73-6.5-5.2 2.5-23.3 11.1-23 23 .1 4.7 3 9 6.5 11.5 5.8 4.1 12.1.6 21-.5 21.6-2.8 27.4 11.1 49 7.5 4-.7 16.6-2.8 18-9 2-8.7-17.9-25.1-35.5-22.5-.9.1-12.6 2-14 8.5-1.4 6.4 7.3 16.2 15.5 14.5 5.9-1.2 10.6-8 9.5-13-1.7-7.4-17.1-12.9-30-10.5-23.3 4.3-30.5 32.8-44 30-7.7-1.6-11.1-11.9-11.5-13-5.5-16.9 10.7-40.3 29.5-50.5 24.1-13 61.2-9 85.5 8 13.2 9.2 24.1 23.2 40 21 6.1-.8 10.4-3.7 13-5.5 22.9-15.7 24.8-50.9 25.5-64 1.1-19.8 2.8-51.2-17.5-70-12.8-11.8-28.7-13.5-37-14.5-120.1-13.9-184.7-48.4-210.5-16.5-16.9 20.9-26.5 42.5-26.5 42.5-5 11.3-8.8 23-14.5 23-4.8 0-8.4-8.5-9.5-11-9-21.2 2.1-53.9 17.5-77 41.7-62.5 126.2-70.7 139.5-72 56-5.5 99.2 12 118 21 27 12.9 46.5 32.4 85.5 71.5 4.1 4.1 11.4 11.6 15 23.5 2.5 8.3 2.2 15.2 2 19.5-3.1 57.4-8.3 60.8-6.5 84 .5 6.7 1.6 15.2-1.5 26-.7 2.3-3.5 11.7-11.5 21.5-8.6 10.5-21.2 19.2-23 17.5-1.8-1.8 5.9-17.1 19.5-22 2.5-.9 8.8-3.2 15-.5 8 3.4 10.7 13 12 18 3.3 12.3 1.1 21.7-11.5 63-6.7 21.9-9.4 30.1-18 37.5-3.5 3-11.7 10.1-22 8.5-7.2-1.1-15.1-6.5-16.5-13.5-1.4-7.1 5.1-9.4 8.5-20 5-15.4-5.3-21.6-1-38 .7-2.5 4.9-18.7 16.5-21 10.5-2.1 22.7 8 24 18 .7 5.1-1.9 7-12 24-10.5 17.7-11 21.4-15 22-8.5 1.3-21.3-13.1-20.5-27.5.6-11.2 9.5-22.6 15.5-21.5 6.1 1.1 11 15.5 7.5 26.5-3.8 11.8-15.4 13.6-31.5 25-15.2 10.7-10.9 13.4-35.5 39-24.7 25.7-37.1 38.6-53.5 39.5-2.7.1-12.2.3-25.5 2-9.4 1.2-14.1 1.8-16.5 3.5-9 6.3-5 17.7-13 33.5-1.3 2.5-6.3 11.8-14.5 18-26.6 19.9-78.6.1-81.5-1-8.5-3.3-18.5-8.4-32-6.5-4.9.7-15.4 2.1-19.5 9-8.3 14 11.6 47.4 39.5 61 6.6 3.2 19 7.9 47.5 6 57.7-3.9 99.9-29.4 111-36.5 40-25.5 62.5-56.1 70-67 38.5-55.9 38.4-113.9 39-183 .5-64.6.8-96.9-16.5-123-50.6-76.3-176.7-60.8-195-58.5-14.6 1.8-106.1 13.1-122 63-4.3 13.4-5.7 37.7 6 46 6.5 4.6 11.8.4 26 1.5 22.1 1.7 44.4 14.4 55 32.5 7 11.9 10.8 29.3 4.5 34.5-3.1 2.5-7 .9-15-.5-26.2-4.5-32.8 4.8-54.5-1-4.4-1.2-20.9-5.6-21-12-.2-7.1 19.6-16.2 37.5-13.5 6.1.9 14.6 1.3 18.5 7.5 5.7 9.1-.9 25.3-7.5 26-6.5.7-15.9-13.5-12.5-21 3.4-7.5 19.5-7.6 30-3 10.9 4.8 19 15.8 20 27.5 1.2 14.4-8.7 25.4-16.5 34-15 16.6-32.1 22.6-30.5 27 .7 1.8 4.1 2.2 7.5 2.5 10.7 1.1 14.1-4.9 21-3 5.9 1.6 10 7.8 11.5 12.5 1.8 5.9-.9 8.5 1.5 12 3.2 4.7 12.3 6.3 18 3 6.2-3.6 3.7-10.1 9.5-14.5 7.7-5.8 23-2.5 31 6.5 1.4 1.6 6 6.7 4.5 9-3.6 5.7-35-17.3-49.5-6.5-5.1 3.8-6.6 13.2-9.5 32-1.2 7.6-1.1 11 1 13.5 3.7 4.4 11 2.6 20.5 2 26.7-1.7 46.7 7.9 60.5 14.5 6.2 3 9.7 4.7 9.5 6.5-.7 5.3-34 8.8-65.5 3.5-45.5-7.7-75.9-31.7-81-25-.6.8-1.5 2.8 3 11 3 5.5 22.7 39.6 57.5 42.5 24.4 2 60-10.9 64.5-12.5 2.2-.8 7.4-2.7 14-2 11 1.2 20.4 9.2 25 17 10.1 17.2.1 38.6-2 43-14.9 31.9-61.7 52.9-101 46-58.5-10.3-85.9-79.6-102-120.5-27.5-69.6-17.7-128.5-15.5-140.5 5.8-31.7 16.8-56.4 25.5-72.5"/>
    <path d="M479.7 469c-3.2.6-7.6.8-11.5-1.5-5.8-3.4-6.5-9.8-8.5-14-7.8-15.8-45.9-19.4-73-6.5-5.2 2.5-23.3 11.1-23 23 .1 4.7 3 9 6.5 11.5 5.8 4.1 12.1.6 21-.5 21.6-2.8 27.4 11.1 49 7.5 4-.7 16.6-2.8 18-9 2-8.7-17.9-25.1-35.5-22.5-.9.1-12.6 2-14 8.5-1.4 6.4 7.3 16.2 15.5 14.5 5.9-1.2 10.6-8 9.5-13-1.7-7.4-17.1-12.9-30-10.5-23.3 4.3-30.5 32.8-44 30-7.7-1.6-11.1-11.9-11.5-13-5.5-16.9 10.7-40.3 29.5-50.5 24.1-13 61.2-9 85.5 8 13.2 9.2 24.1 23.2 40 21 6.1-.8 10.4-3.7 13-5.5 22.9-15.7 24.8-50.9 25.5-64 1.1-19.8 2.8-51.2-17.5-70-12.8-11.8-28.7-13.5-37-14.5-120.1-13.9-184.7-48.4-210.5-16.5-16.9 20.9-26.5 42.5-26.5 42.5-5 11.3-8.8 23-14.5 23-4.8 0-8.4-8.5-9.5-11-9-21.2 2.1-53.9 17.5-77 41.7-62.5 126.2-70.7 139.5-72 56-5.5 99.2 12 118 21 27 12.9 46.5 32.4 85.5 71.5 4.1 4.1 11.4 11.6 15 23.5 2.5 8.3 2.2 15.2 2 19.5-3.1 57.4-8.3 60.8-6.5 84 .5 6.7 1.6 15.2-1.5 26-.7 2.3-3.5 11.7-11.5 21.5-8.6 10.5-21.2 19.2-23 17.5-1.8-1.8 5.9-17.1 19.5-22 2.5-.9 8.8-3.2 15-.5 8 3.4 10.7 13 12 18 3.3 12.3 1.1 21.7-11.5 63-6.7 21.9-9.4 30.1-18 37.5-3.5 3-11.7 10.1-22 8.5-7.2-1.1-15.1-6.5-16.5-13.5-1.4-7.1 5.1-9.4 8.5-20 5-15.4-5.3-21.6-1-38 .7-2.5 4.9-18.7 16.5-21 10.5-2.1 22.7 8 24 18 .7 5.1-1.9 7-12 24-10.5 17.7-11 21.4-15 22-8.5 1.3-21.3-13.1-20.5-27.5.6-11.2 9.5-22.6 15.5-21.5 6.1 1.1 11 15.5 7.5 26.5-3.8 11.8-15.4 13.6-31.5 25-15.2 10.7-10.9 13.4-35.5 39-24.7 25.7-37.1 38.6-53.5 39.5-2.7.1-12.2.3-25.5 2-9.4 1.2-14.1 1.8-16.5 3.5-9 6.3-5 17.7-13 33.5-1.3 2.5-6.3 11.8-14.5 18-26.6 19.9-78.6.1-81.5-1-8.5-3.3-18.5-8.4-32-6.5-4.9.7-15.4 2.1-19.5 9-8.3 14 11.6 47.4 39.5 61 6.6 3.2 19 7.9 47.5 6 57.7-3.9 99.9-29.4 111-36.5 40-25.5 62.5-56.1 70-67 38.5-55.9 38.4-113.9 39-183 .5-64.6.8-96.9-16.5-123-50.6-76.3-176.7-60.8-195-58.5-14.6 1.8-106.1 13.1-122 63-4.3 13.4-5.7 37.7 6 46 6.5 4.6 11.8.4 26 1.5 22.1 1.7 44.4 14.4 55 32.5 7 11.9 10.8 29.3 4.5 34.5-3.1 2.5-7 .9-15-.5-26.2-4.5-32.8 4.8-54.5-1-4.4-1.2-20.9-5.6-21-12-.2-7.1 19.6-16.2 37.5-13.5 6.1.9 14.6 1.3 18.5 7.5 5.7 9.1-.9 25.3-7.5 26-6.5.7-15.9-13.5-12.5-21 3.4-7.5 19.5-7.6 30-3 10.9 4.8 19 15.8 20 27.5 1.2 14.4-8.7 25.4-16.5 34-15 16.6-32.1 22.6-30.5 27 .7 1.8 4.1 2.2 7.5 2.5 10.7 1.1 14.1-4.9 21-3 5.9 1.6 10 7.8 11.5 12.5 1.8 5.9-.9 8.5 1.5 12 3.2 4.7 12.3 6.3 18 3 6.2-3.6 3.7-10.1 9.5-14.5 7.7-5.8 23-2.5 31 6.5 1.4 1.6 6 6.7 4.5 9-3.6 5.7-35-17.3-49.5-6.5-5.1 3.8-6.6 13.2-9.5 32-1.2 7.6-1.1 11 1 13.5 3.7 4.4 11 2.6 20.5 2 26.7-1.7 46.7 7.9 60.5 14.5 6.2 3 9.7 4.7 9.5 6.5-.7 5.3-34 8.8-65.5 3.5-45.5-7.7-75.9-31.7-81-25-.6.8-1.5 2.8 3 11 3 5.5 22.7 39.6 57.5 42.5 24.4 2 60-10.9 64.5-12.5 2.2-.8 7.4-2.7 14-2 11 1.2 20.4 9.2 25 17 10.1 17.2.1 38.6-2 43-14.9 31.9-61.7 52.9-101 46-58.5-10.3-85.9-79.6-102-120.5-27.4-69.6-17.6-128.5-15.5-140.5 5.8-31.7 16.8-56.4 25.5-72.5"/>
  </g>
</svg>
